<?xml version="1.0" encoding="UTF-8" standalone="no"?>
<svg xmlns="http://www.w3.org/2000/svg" version="1.1" width="48" height="48" viewBox="0 0 48 48">
  <g style="fill:none;stroke:#000000;stroke-width:2;stroke-linecap:butt;stroke-linejoin:miter;stroke-opacity:1">
    <path d="M25.59,10.06v-3.2c0-2.04,1.89-3.54,3.84-3.05l12.33,3.15c1.72.44,2.92,2.01,2.92,3.82v21.2c0,2.04-1.89,3.54-3.84,3.05l-7.29-1.86"/>
    <path d="M13.98,14.82v-3.07c0-2.04,1.89-3.54,3.84-3.05l12.33,3.15c1.72.44,2.92,2.01,2.92,3.82v21.2c0,2.04-1.89,3.54-3.84,3.05l-7.33-1.88"/>
    <path d="M5.29,41.66c-1.72-.44-2.92-2.01-2.92-3.82v-21.2c0-2.04,1.89-3.54,3.84-3.05l12.33,3.15c1.7.44,2.92,2.01,2.92,3.82v21.2c0,2.04-1.89,3.54-3.84,3.05,0,0-12.33-3.15-12.33-3.15Z"/>
  </g>
</svg>
