<?xml version="1.0" encoding="UTF-8" standalone="no"?>
<svg xmlns="http://www.w3.org/2000/svg" version="1.1" width="48" height="48" viewBox="0 0 48 48">
  <path fill="#000000" d="M35.296 23.205l-15.752-15.75c-0.204-0.204-0.485-0.33-0.795-0.33-0 0-0 0-0 0h-15.75c-0.621 0-1.125 0.504-1.125 1.125v0 15.75c0 0 0 0 0 0 0 0.31 0.126 0.593 0.33 0.795l15.75 15.752c0.204 0.203 0.485 0.329 0.795 0.329s0.591-0.126 0.795-0.329l15.752-15.752c0.203-0.204 0.327-0.485 0.327-0.795s-0.124-0.591-0.327-0.795l0 0zM18.75 38.159l-14.625-14.625v-14.159h14.159l14.625 14.625zM10.875 12.375c-2.071 0-3.75 1.679-3.75 3.75s1.679 3.75 3.75 3.75c2.071 0 3.75-1.679 3.75-3.75v0c-0.002-2.07-1.68-3.748-3.75-3.75h-0zM10.875 17.625c-0.828 0-1.5-0.672-1.5-1.5s0.672-1.5 1.5-1.5c0.828 0 1.5 0.672 1.5 1.5v0c-0 0.828-0.672 1.5-1.5 1.5h-0zM45.796 23.205l-18-18c-0.204-0.203-0.485-0.327-0.794-0.327-0.621 0-1.125 0.504-1.125 1.125 0 0.309 0.124 0.59 0.327 0.794l17.205 17.205-17.205 17.203c-0.204 0.204-0.33 0.486-0.33 0.796 0 0.622 0.504 1.127 1.127 1.127 0.31 0 0.593-0.126 0.796-0.33v0l18-18.002c0.203-0.204 0.327-0.485 0.327-0.795s-0.124-0.591-0.327-0.795l0 0z"/>
</svg>
